<?xml version="1.0" encoding="utf-8"?>
<svg version="1.1" xmlns:xlink="http://www.w3.org/1999/xlink" width="28px" height="28px" xmlns="http://www.w3.org/2000/svg">
  <g transform="matrix(1 0 0 1 -695 -90 )">
    <path d="M 17.3125 21.015625  C 17.979166666666668 21.390625  18.401041666666668 21.192708333333332  18.578125 20.421875  L 20.875 9.59375  C 20.96875 9.135416666666663  20.9140625 8.807291666666663  20.7109375 8.609375  C 20.5078125 8.411458333333332  20.239583333333336 8.375000000000002  19.90625 8.5  L 6.40625 13.703125  C 6.104166666666667 13.817708333333332  5.8984375 13.947916666666666  5.7890625 14.09375  C 5.6796875 14.239583333333332  5.666666666666667 14.377604166666668  5.75 14.5078125  C 5.833333333333334 14.638020833333332  6 14.739583333333332  6.25 14.812500000000002  L 9.703125 15.890625  L 17.71875 10.84375  C 17.9375 10.697916666666664  18.104166666666668 10.666666666666663  18.21875 10.75  C 18.291666666666668 10.802083333333332  18.270833333333336 10.88020833333333  18.15625 10.984374999999998  L 11.671875 16.84375  L 11.421875 20.40625  C 11.661458333333334 20.40625  11.895833333333334 20.291666666666664  12.125 20.0625  L 13.8125 18.4375  L 17.3125 21.015625  Z M 26.890625 8.5625  C 27.630208333333336 10.291666666666664  28 12.104166666666666  28 14  C 28 15.895833333333332  27.630208333333336 17.708333333333332  26.890625 19.4375  C 26.15104166666667 21.166666666666664  25.156250000000004 22.65625  23.90625 23.90625  C 22.65625 25.15625  21.166666666666668 26.151041666666668  19.4375 26.890625  C 17.708333333333336 27.630208333333332  15.895833333333334 28  14 28  C 12.104166666666668 28  10.291666666666668 27.630208333333332  8.5625 26.890625  C 6.833333333333334 26.151041666666668  5.34375 25.15625  4.09375 23.90625  C 2.84375 22.65625  1.8489583333333335 21.166666666666664  1.109375 19.4375  C 0.36979166666666663 17.708333333333332  0 15.895833333333332  0 14  C 0 12.104166666666666  0.36979166666666663 10.291666666666664  1.109375 8.5625  C 1.8489583333333335 6.83333333333333  2.84375 5.34375  4.09375 4.093749999999998  C 5.34375 2.84375  6.833333333333334 1.8489583333333326  8.5625 1.1093749999999996  C 10.291666666666668 0.3697916666666665  12.104166666666668 0  14 0  C 15.895833333333334 0  17.708333333333336 0.3697916666666665  19.4375 1.1093749999999996  C 21.166666666666668 1.8489583333333326  22.65625 2.84375  23.90625 4.093749999999998  C 25.156250000000004 5.34375  26.15104166666667 6.83333333333333  26.890625 8.5625  Z " fill-rule="nonzero" fill="#aaaaaa" stroke="none" transform="matrix(1 0 0 1 695 90 )" />
  </g>
</svg>