<?xml version="1.0" encoding="utf-8"?>
<svg version="1.1" xmlns:xlink="http://www.w3.org/1999/xlink" width="28px" height="28px" xmlns="http://www.w3.org/2000/svg">
  <g transform="matrix(1 0 0 1 -695 -122 )">
    <path d="M 21.419270833333336 10.7734375  C 22.184895833333336 10.2265625  22.822916666666664 9.564236111111109  23.333333333333336 8.786458333333334  C 22.65277777777778 9.090277777777775  21.917534722222225 9.296875  21.127604166666664 9.40625  C 21.95399305555556 8.920138888888888  22.519097222222225 8.209201388888888  22.822916666666664 7.2734375  C 22.032986111111114 7.735243055555554  21.21875 8.045138888888888  20.380208333333336 8.203125  C 19.63888888888889 7.401041666666666  18.70920138888889 7  17.591145833333336 7  C 16.533854166666664 7  15.631510416666666 7.373697916666666  14.884114583333334 8.12109375  C 14.13671875 8.868489583333334  13.763020833333332 9.770833333333334  13.763020833333332 10.828125  C 13.763020833333332 11.180555555555554  13.79340277777778 11.472222222222221  13.854166666666668 11.703125  C 12.286458333333332 11.618055555555554  10.815972222222223 11.223090277777779  9.442708333333332 10.518229166666666  C 8.069444444444445 9.813368055555554  6.902777777777779 8.871527777777775  5.942708333333334 7.692708333333334  C 5.590277777777779 8.300347222222221  5.4140625 8.944444444444441  5.4140625 9.625  C 5.4140625 11.010416666666666  5.96701388888889 12.073784722222221  7.072916666666667 12.815104166666666  C 6.501736111111112 12.802951388888888  5.894097222222222 12.644965277777779  5.25 12.341145833333334  L 5.25 12.377604166666666  C 5.25 13.2890625  5.553819444444445 14.100260416666668  6.161458333333334 14.811197916666668  C 6.769097222222222 15.522135416666668  7.516493055555556 15.962673611111112  8.403645833333332 16.1328125  C 8.05121527777778 16.230034722222218  7.7413194444444455 16.278645833333332  7.473958333333333 16.278645833333332  C 7.315972222222223 16.278645833333332  7.078993055555556 16.254340277777775  6.763020833333334 16.205729166666668  C 7.018229166666667 16.971354166666668  7.470920138888889 17.603298611111107  8.12109375 18.1015625  C 8.77126736111111 18.599826388888886  9.509548611111112 18.855034722222218  10.3359375 18.8671875  C 8.926215277777779 19.9609375  7.340277777777779 20.5078125  5.578125 20.5078125  C 5.262152777777779 20.5078125  4.958333333333334 20.489583333333332  4.666666666666666 20.453125  C 6.465277777777779 21.595486111111114  8.421875 22.166666666666664  10.536458333333332 22.166666666666664  C 11.897569444444445 22.166666666666664  13.173611111111112 21.950954861111114  14.364583333333334 21.51953125  C 15.555555555555557 21.088107638888886  16.57638888888889 20.510850694444443  17.427083333333336 19.787760416666668  C 18.27777777777778 19.064670138888886  19.00998263888889 18.232204861111107  19.623697916666664 17.290364583333332  C 20.237413194444446 16.348524305555557  20.693142361111114 15.364149305555557  20.990885416666664 14.337239583333332  C 21.288628472222225 13.310329861111109  21.4375 12.286458333333334  21.4375 11.265625  C 21.4375 11.046875  21.431423611111114 10.8828125  21.419270833333336 10.7734375  Z M 26.459635416666664 1.5403645833333344  C 27.486545138888886 2.567274305555553  28 3.8038194444444406  28 5.25  L 28 22.75  C 28 24.196180555555554  27.486545138888886 25.432725694444446  26.459635416666664 26.459635416666664  C 25.432725694444446 27.486545138888886  24.19618055555556 28  22.75 28  L 5.25 28  C 3.8038194444444446 28  2.567274305555556 27.486545138888886  1.5403645833333335 26.459635416666664  C 0.513454861111111 25.432725694444446  0 24.196180555555554  0 22.75  L 0 5.25  C 0 3.8038194444444406  0.513454861111111 2.567274305555553  1.5403645833333335 1.5403645833333344  C 2.567274305555556 0.5134548611111094  3.8038194444444446 0  5.25 0  L 22.75 0  C 24.19618055555556 0  25.432725694444446 0.5134548611111094  26.459635416666664 1.5403645833333344  Z " fill-rule="nonzero" fill="#d7d7d7" stroke="none" transform="matrix(1 0 0 1 695 122 )" />
  </g>
</svg>