<?xml version="1.0" encoding="utf-8"?>
<svg version="1.1" xmlns:xlink="http://www.w3.org/1999/xlink" width="28px" height="24px" xmlns="http://www.w3.org/2000/svg">
  <g transform="matrix(1 0 0 1 -695 -155 )">
    <path d="M 9.28125 4.401055408970976  C 9.3125 4.432717678100265  9.328125 4.459102902374667  9.328125 4.480211081794195  L 9.328125 23.050131926121374  C 9.328125 23.31398416886544  9.263020833333334 23.538258575197887  9.1328125 23.722955145118735  C 9.002604166666668 23.907651715039577  8.8125 24  8.5625 24  C 8.385416666666668 24  8.213541666666668 23.95778364116095  8.046875 23.87335092348285  L 0.78125 20.184696569920845  C 0.5625 20.07915567282322  0.37760416666666674 19.9023746701847  0.22656250000000003 19.654353562005277  C 0.07552083333333336 19.406332453825858  0 19.160949868073878  0 18.91820580474934  L 0 0.8707124010554086  C 0 0.659630606860155  0.052083333333333356 0.48021108179419336  0.15625000000000003 0.3324538258575185  C 0.26041666666666674 0.18469656992084094  0.41145833333333337 0.11081794195250616  0.609375 0.11081794195250616  C 0.7552083333333334 0.11081794195250616  0.984375 0.1899736147757256  1.296875 0.3482849604221645  L 9.28125 4.401055408970976  Z M 10.328125 15.5778364116095  L 10.328125 6.0791556728232194  L 18.671875 19.788918205804748  L 10.328125 15.5778364116095  Z M 19.5625 20.248021108179422  L 28 6.364116094986808  L 28 23.050131926121374  C 28 23.31398416886544  27.927083333333336 23.527704485488126  27.78125 23.691292875989447  C 27.63541666666667 23.854881266490764  27.437500000000004 23.936675461741423  27.1875 23.936675461741423  C 26.937500000000004 23.936675461741423  26.692708333333336 23.868073878627968  26.453125 23.730870712401057  L 19.5625 20.248021108179422  Z M 27.890625 4.369393139841689  C 27.932291666666668 4.390501319261212  27.953125 4.422163588390501  27.953125 4.464379947229552  C 27.953125 4.4960422163588385  26.6171875 6.709762532981529  23.9453125 11.105540897097626  C 21.2734375 15.501319261213716  19.708333333333336 18.073878627968334  19.25 18.82321899736148  L 13.15625 8.786279683377309  L 18.21875 0.4432717678100273  C 18.395833333333336 0.14775725593667488  18.666666666666668 0  19.03125 0  C 19.177083333333336 0  19.3125 0.03166226912928671  19.4375 0.0949868073878628  L 27.890625 4.369393139841689  Z " fill-rule="nonzero" fill="#d7d7d7" stroke="none" transform="matrix(1 0 0 1 695 155 )" />
  </g>
</svg>