<?xml version="1.0" encoding="utf-8"?>
<svg version="1.1" xmlns:xlink="http://www.w3.org/1999/xlink" width="60px" height="60px" xmlns="http://www.w3.org/2000/svg">
  <g transform="matrix(1 0 0 1 -33 -240 )">
    <path d="M 63 240  C 79.80000000000001 240  93 253.2  93 270  C 93 286.8  79.80000000000001 300  63 300  C 46.2 300  33 286.8  33 270  C 33 253.2  46.2 240  63 240  Z " fill-rule="nonzero" fill="#ffffff" stroke="none" />
    <path d="M 63 240.5  C 79.52000000000001 240.5  92.5 253.48  92.5 270  C 92.5 286.52  79.52000000000001 299.5  63 299.5  C 46.48 299.5  33.5 286.52  33.5 270  C 33.5 253.48  46.48 240.5  63 240.5  Z " stroke-width="1" stroke="#797979" fill="none" />
  </g>
</svg>