<?xml version="1.0" encoding="utf-8"?>
<svg version="1.1" xmlns:xlink="http://www.w3.org/1999/xlink" width="60px" height="60px" xmlns="http://www.w3.org/2000/svg">
  <g transform="matrix(1 0 0 1 -6 -8 )">
    <path d="M 36 8  C 52.800000000000004 8  66 21.2  66 38  C 66 54.800000000000004  52.800000000000004 68  36 68  C 19.2 68  6 54.800000000000004  6 38  C 6 21.2  19.2 8  36 8  Z " fill-rule="nonzero" fill="#f2f2f2" stroke="none" />
    <path d="M 36 8.5  C 52.52 8.5  65.5 21.479999999999997  65.5 38  C 65.5 54.52  52.52 67.5  36 67.5  C 19.479999999999997 67.5  6.5 54.52  6.5 38  C 6.5 21.479999999999997  19.479999999999997 8.5  36 8.5  Z " stroke-width="1" stroke="#797979" fill="none" />
  </g>
</svg>