<?xml version="1.0" encoding="utf-8"?>
<svg version="1.1" xmlns:xlink="http://www.w3.org/1999/xlink" width="240px" height="312px" xmlns="http://www.w3.org/2000/svg">
  <g>
    <path d="M 0 0  L 240 0  L 240 312  L 0 312  L 0 0  " fill-rule="nonzero" fill="#cccccc" stroke="none" />
    <path d="M 17 17  L 223 17  L 223 295  L 17 295  L 17 17  " fill-rule="nonzero" fill="#ffffff" stroke="none" />
    <path d="M 142.8 82.8  C 132.72 82.8  124.80000000000001 74.88  124.80000000000001 64.8  C 124.80000000000001 54.72  132.72 46.8  142.8 46.8  C 152.88000000000002 46.8  160.8 54.72  160.8 64.8  C 160.8 74.88  152.88000000000002 82.8  142.8 82.8  " fill-rule="nonzero" fill="#cccccc" stroke="none" />
    <path d="M 23 289  L 23 142.7  L 71.5 76.19999999999999  L 139.39999999999998 129.4  L 178.20000000000002 116.1  L 217 129.4  L 217 289  L 23 289  " fill-rule="nonzero" fill="#169bd5" stroke="none" />
  </g>
</svg>