<?xml version="1.0" encoding="utf-8"?>
<svg version="1.1" xmlns:xlink="http://www.w3.org/1999/xlink" width="343px" height="385px" xmlns="http://www.w3.org/2000/svg">
  <g transform="matrix(1 0 0 1 -644 -2076 )">
    <path d="M 644 2076  L 987 2076  L 987 2461  L 644 2461  L 644 2076  " fill-rule="nonzero" fill="#cccccc" stroke="none" />
    <path d="M 668 2100  L 963 2100  L 963 2437  L 668 2437  L 668 2100  " fill-rule="nonzero" fill="#ffffff" stroke="none" />
    <path d="M 848.085 2185.2  C 833.679 2185.2  822.36 2173.881  822.36 2159.475  C 822.36 2145.069  833.679 2133.75  848.085 2133.75  C 862.4910000000001 2133.75  873.8100000000001 2145.069  873.8100000000001 2159.475  C 873.8100000000001 2173.881  862.4910000000001 2185.2  848.085 2185.2  " fill-rule="nonzero" fill="#cccccc" stroke="none" />
    <path d="M 677 2429  L 677 2253  L 746.5 2173  L 843.8 2237  L 899.4 2221  L 955 2237  L 955 2429  L 677 2429  " fill-rule="nonzero" fill="#169bd5" stroke="none" />
  </g>
</svg>