<?xml version="1.0" encoding="utf-8"?>
<svg version="1.1" xmlns:xlink="http://www.w3.org/1999/xlink" width="193px" height="233px" xmlns="http://www.w3.org/2000/svg">
  <g transform="matrix(1 0 0 1 -416 -61 )">
    <path d="M 416 61  L 609 61  L 609 294  L 416 294  L 416 61  " fill-rule="nonzero" fill="#cccccc" stroke="none" />
    <path d="M 430 75  L 595 75  L 595 280  L 430 280  L 430 75  " fill-rule="nonzero" fill="#ffffff" stroke="none" />
    <path d="M 530.835 124.89999999999999  C 522.729 124.89999999999999  516.36 118.53099999999999  516.36 110.42499999999998  C 516.36 102.31899999999999  522.729 95.94999999999999  530.835 95.94999999999999  C 538.941 95.94999999999999  545.3100000000001 102.31899999999999  545.3100000000001 110.42499999999998  C 545.3100000000001 118.53099999999999  538.941 124.89999999999999  530.835 124.89999999999999  " fill-rule="nonzero" fill="#cccccc" stroke="none" />
    <path d="M 435 275  L 435 167.75  L 473.75 119  L 528 158  L 559 148.25  L 590 158  L 590 275  L 435 275  " fill-rule="nonzero" fill="#169bd5" stroke="none" />
  </g>
</svg>