<?xml version="1.0" encoding="utf-8"?>
<svg version="1.1" xmlns:xlink="http://www.w3.org/1999/xlink" width="169px" height="184px" xmlns="http://www.w3.org/2000/svg">
  <g transform="matrix(1 0 0 1 -164 -133 )">
    <path d="M 164 133  L 333 133  L 333 317  L 164 317  L 164 133  " fill-rule="nonzero" fill="#cccccc" stroke="none" />
    <path d="M 176 145  L 321 145  L 321 305  L 176 305  L 176 145  " fill-rule="nonzero" fill="#ffffff" stroke="none" />
    <path d="M 264.555 185.95  C 257.457 185.95  251.88 180.373  251.88 173.27499999999998  C 251.88 166.177  257.457 160.6  264.555 160.6  C 271.653 160.6  277.23 166.177  277.23 173.27499999999998  C 277.23 180.373  271.653 185.95  264.555 185.95  " fill-rule="nonzero" fill="#cccccc" stroke="none" />
    <path d="M 180 301  L 180 217.39999999999998  L 214.25 179.39999999999998  L 262.2 209.8  L 289.6 202.2  L 317 209.8  L 317 301  L 180 301  " fill-rule="nonzero" fill="#169bd5" stroke="none" />
  </g>
</svg>