<?xml version="1.0" encoding="utf-8"?>
<svg version="1.1" xmlns:xlink="http://www.w3.org/1999/xlink" width="343px" height="447px" xmlns="http://www.w3.org/2000/svg">
  <g transform="matrix(1 0 0 1 -644 -636 )">
    <path d="M 644 636  L 987 636  L 987 1083  L 644 1083  L 644 636  " fill-rule="nonzero" fill="#cccccc" stroke="none" />
    <path d="M 668 660  L 963 660  L 963 1059  L 668 1059  L 668 660  " fill-rule="nonzero" fill="#ffffff" stroke="none" />
    <path d="M 848.085 754.5  C 833.679 754.5  822.36 743.181  822.36 728.775  C 822.36 714.3689999999999  833.679 703.05  848.085 703.05  C 862.4910000000001 703.05  873.8100000000001 714.3689999999999  873.8100000000001 728.775  C 873.8100000000001 743.181  862.4910000000001 754.5  848.085 754.5  " fill-rule="nonzero" fill="#cccccc" stroke="none" />
    <path d="M 677 1051  L 677 840.9  L 746.5 745.4  L 843.8 821.8  L 899.4 802.7  L 955 821.8  L 955 1051  L 677 1051  " fill-rule="nonzero" fill="#169bd5" stroke="none" />
  </g>
</svg>