<?xml version="1.0" encoding="utf-8"?>
<svg version="1.1" xmlns:xlink="http://www.w3.org/1999/xlink" width="28px" height="18px" xmlns="http://www.w3.org/2000/svg">
  <g transform="matrix(1 0 0 1 -493 -187 )">
    <path d="M 20.7890625 14.1015625  C 22.877604166666668 12.8359375  24.614583333333336 11.135416666666664  26 9  C 24.416666666666668 6.541666666666667  22.432291666666668 4.703125  20.046875 3.484374999999999  C 20.682291666666668 4.567708333333331  21 5.739583333333332  21 6.999999999999999  C 21 8.927083333333332  20.315104166666668 10.575520833333332  18.9453125 11.9453125  C 17.575520833333336 13.315104166666664  15.927083333333334 14  14 14  C 12.072916666666668 14  10.424479166666668 13.315104166666664  9.0546875 11.9453125  C 7.684895833333335 10.575520833333332  7 8.927083333333332  7 6.999999999999999  C 7 5.739583333333332  7.317708333333334 4.567708333333331  7.953124999999999 3.484374999999999  C 5.567708333333334 4.703125  3.583333333333334 6.541666666666667  2 9  C 3.385416666666667 11.135416666666664  5.122395833333334 12.8359375  7.2109375 14.1015625  C 9.299479166666668 15.3671875  11.5625 16  14 16  C 16.4375 16  18.700520833333336 15.3671875  20.7890625 14.1015625  Z M 14.53125 3.5312500000000004  C 14.677083333333336 3.385416666666667  14.75 3.2083333333333326  14.75 2.999999999999999  C 14.75 2.791666666666666  14.677083333333336 2.6145833333333317  14.53125 2.46875  C 14.38541666666667 2.3229166666666647  14.208333333333332 2.2499999999999982  14 2.25  C 12.697916666666668 2.2499999999999982  11.580729166666668 2.7161458333333326  10.6484375 3.6484375  C 9.716145833333334 4.580729166666667  9.25 5.697916666666667  9.25 6.999999999999999  C 9.25 7.208333333333332  9.322916666666668 7.385416666666667  9.46875 7.53125  C 9.614583333333334 7.677083333333332  9.791666666666668 7.75  10 7.75  C 10.208333333333334 7.75  10.385416666666668 7.677083333333332  10.53125 7.53125  C 10.677083333333334 7.385416666666667  10.75 7.208333333333332  10.75 6.999999999999999  C 10.75 6.104166666666666  11.067708333333334 5.338541666666666  11.703125 4.703125  C 12.338541666666668 4.067708333333333  13.104166666666668 3.7499999999999987  14 3.750000000000001  C 14.208333333333332 3.7499999999999987  14.38541666666667 3.677083333333332  14.53125 3.5312500000000004  Z M 27.6875 7.921874999999999  C 27.895833333333336 8.286458333333332  28 8.645833333333332  28 9  C 28 9.354166666666664  27.895833333333336 9.713541666666668  27.6875 10.078124999999998  C 26.22916666666667 12.473958333333332  24.26822916666667 14.393229166666668  21.8046875 15.8359375  C 19.341145833333336 17.278645833333332  16.739583333333336 18  14 18  C 11.260416666666668 18  8.658854166666668 17.276041666666668  6.1953125 15.828125  C 3.7317708333333335 14.380208333333332  1.7708333333333337 12.463541666666664  0.3125 10.078124999999998  C 0.10416666666666666 9.713541666666668  0 9.354166666666664  0 9  C 0 8.645833333333332  0.10416666666666666 8.286458333333332  0.3125 7.921874999999999  C 1.7708333333333337 5.536458333333333  3.7317708333333335 3.6197916666666656  6.1953125 2.171875  C 8.658854166666668 0.7239583333333319  11.260416666666668 0  14 0  C 16.739583333333336 0  19.341145833333336 0.7239583333333319  21.8046875 2.171875  C 24.26822916666667 3.6197916666666656  26.22916666666667 5.536458333333333  27.6875 7.921874999999999  Z " fill-rule="nonzero" fill="#aaaaaa" stroke="none" transform="matrix(1 0 0 1 493 187 )" />
  </g>
</svg>