<?xml version="1.0" encoding="utf-8"?>
<svg version="1.1" xmlns:xlink="http://www.w3.org/1999/xlink" width="21px" height="18px" xmlns="http://www.w3.org/2000/svg">
  <g transform="matrix(1 0 0 1 -861 -186 )">
    <path d="M 11.015625 17.7890625  C 10.875000000000002 17.9296875  10.703125 18  10.5 18  C 10.296875 18  10.125000000000002 17.9296875  9.984375 17.7890625  L 2.671875 10.734375000000002  C 2.59375 10.671875  2.4863281250000004 10.570312499999998  2.349609375 10.429687499999998  C 2.212890625 10.289062499999998  1.9960937500000002 10.033203125  1.69921875 9.662109375000002  C 1.40234375 9.291015624999998  1.13671875 8.910156249999998  0.90234375 8.51953125  C 0.66796875 8.12890625  0.45898437500000006 7.65625  0.275390625 7.1015625  C 0.091796875 6.546874999999998  0 6.007812499999999  0 5.484375  C 0 3.765624999999999  0.4960937499999999 2.421874999999999  1.48828125 1.4531249999999993  C 2.48046875 0.4843749999999998  3.8515624999999996 0  5.601562500000001 0  C 6.0859375 0  6.580078124999999 0.08398437499999889  7.083984375 0.25195312500000067  C 7.587890625 0.41992187499999845  8.056640625 0.6464843749999989  8.490234375 0.931640625  C 8.923828125000002 1.2167968749999991  9.296875000000002 1.4843749999999982  9.609375 1.7343749999999993  C 9.921875 1.9843749999999984  10.21875 2.25  10.5 2.53125  C 10.781249999999998 2.25  11.078125000000002 1.9843749999999984  11.390625 1.7343749999999993  C 11.703125000000002 1.4843749999999982  12.076171875 1.2167968749999991  12.509765625 0.931640625  C 12.943359375 0.6464843749999989  13.412109375 0.41992187499999845  13.916015625 0.25195312500000067  C 14.419921875 0.08398437499999889  14.914062500000002 0  15.3984375 0  C 17.1484375 0  18.519531250000004 0.4843749999999998  19.51171875 1.4531249999999993  C 20.50390625 2.421874999999999  21 3.765624999999999  21 5.484375  C 21 7.210937499999999  20.10546875 8.96875  18.31640625 10.7578125  L 11.015625 17.7890625  Z " fill-rule="nonzero" fill="#aaaaaa" stroke="none" transform="matrix(1 0 0 1 861 186 )" />
  </g>
</svg>