<?xml version="1.0" encoding="utf-8"?>
<svg version="1.1" xmlns:xlink="http://www.w3.org/1999/xlink" width="30px" height="30px" xmlns="http://www.w3.org/2000/svg">
  <defs>
    <mask fill="white" id="clip40">
      <path d="M 0 15  C 0 6.600000000000023  6.600000000000023 0  15 0  C 19.243367417501076 0  23.027393839086017 1.6842503183588633  25.733300656630263 4.433972346951975  C 28.38389848057136 7.127489794846269  30 10.843367417501042  30 15  C 30 23.399999999999977  23.399999999999977 30  15 30  C 6.600000000000023 30  0 23.399999999999977  0 15  Z " fill-rule="evenodd" />
    </mask>
  </defs>
  <g transform="matrix(1 0 0 1 -778 -307 )">
    <path d="M 0 15  C 0 6.600000000000023  6.600000000000023 0  15 0  C 19.243367417501076 0  23.027393839086017 1.6842503183588633  25.733300656630263 4.433972346951975  C 28.38389848057136 7.127489794846269  30 10.843367417501042  30 15  C 30 23.399999999999977  23.399999999999977 30  15 30  C 6.600000000000023 30  0 23.399999999999977  0 15  Z " fill-rule="nonzero" fill="#ffffff" stroke="none" transform="matrix(1 0 0 1 778 307 )" />
    <path d="M 0 15  C 0 6.600000000000023  6.600000000000023 0  15 0  C 19.243367417501076 0  23.027393839086017 1.6842503183588633  25.733300656630263 4.433972346951975  C 28.38389848057136 7.127489794846269  30 10.843367417501042  30 15  C 30 23.399999999999977  23.399999999999977 30  15 30  C 6.600000000000023 30  0 23.399999999999977  0 15  Z " stroke-width="2" stroke="#797979" fill="none" transform="matrix(1 0 0 1 778 307 )" mask="url(#clip40)" />
  </g>
</svg>