<?xml version="1.0" encoding="utf-8"?>
<svg version="1.1" xmlns:xlink="http://www.w3.org/1999/xlink" width="28px" height="18px" xmlns="http://www.w3.org/2000/svg">
  <g transform="matrix(1 0 0 1 -449 -15 )">
    <path d="M 28 3.991304347826088  C 28 4.298550724637681  27.889991728701407 4.562318840579708  27.669975186104217 4.782608695652173  L 14.781637717121587 17.669565217391305  C 14.5616211745244 17.889855072463767  14.301075268817204 18  14 18  C 13.698924731182798 18  13.438378825475601 17.889855072463767  13.218362282878411 17.669565217391305  L 0.33002481389578164 4.782608695652173  C 0.11000827129859404 4.562318840579708  0 4.298550724637681  0 3.991304347826088  C 0 3.6840579710144907  0.11000827129859404 3.420289855072463  0.33002481389578164 3.2000000000000006  L 3.2133995037220844 0.3304347826086955  C 3.433416046319272 0.11014492753623117  3.693961952026469 0  3.995037220843672 0  C 4.296112489660878 0  4.556658395368074 0.11014492753623117  4.776674937965261 0.3304347826086955  L 14 9.565217391304346  L 23.22332506203474 0.3304347826086955  C 23.44334160463193 0.11014492753623117  23.703887510339126 0  24.00496277915633 0  C 24.306038047973537 0  24.56658395368073 0.11014492753623117  24.786600496277917 0.3304347826086955  L 27.669975186104217 3.2000000000000006  C 27.889991728701407 3.420289855072463  28 3.6840579710144907  28 3.991304347826088  Z " fill-rule="nonzero" fill="#000000" stroke="none" transform="matrix(1 0 0 1 449 15 )" />
  </g>
</svg>