<?xml version="1.0" encoding="utf-8"?>
<svg version="1.1" xmlns:xlink="http://www.w3.org/1999/xlink" width="38px" height="30px" xmlns="http://www.w3.org/2000/svg">
  <g transform="matrix(1 0 0 1 -5 -324 )">
    <path d="M 32.53779429987608 17.139516757599374  C 32.553490293267245 17.17069368667186  32.561338289962826 17.21745908028059  32 17.279812938425565  L 32 28.503507404520654  C 32.561338289962826 28.908807482462976  32.4122263527468 29.25954793452845  32.114002478314745 29.555728760717066  C 31.8157786038827 29.85190958690569  31.462618752581584 30  31.054522924411398 30  L 22.01363073110285 30  L 22.01363073110285 21.02104442712393  L 15.98636926889715 21.02104442712393  L 15.98636926889715 30  L 6.9454770755886 30  C 6.5373812474184225 30  6.184221396117308 29.85190958690569  5.885997521685254 29.555728760717066  C 5.587773647253202 29.25954793452845  5.438661710037175 28.908807482462976  6 28.503507404520654  L 6 17.279812938425565  C 5.438661710037175 17.26422447388932  5.442585708384965 17.240841777084956  5.450433705080545 17.20966484801247  C 5.4582817017761265 17.178487918939986  5.462205700123916 17.15510522213562  5.462205700123916 17.139516757599374  L 19 6.056118472330475  L 32.53779429987608 17.139516757599374  Z M 37.97645600991326 15.116913484021826  C 37.99215200330442 15.327357755261106  37.93721602643536 15.510522213561963  37.81164807930607 15.666406858924397  L 36.35192069392813 17.39672642244739  C 36.226352746798845 17.53702260327358  36.061544816191656 17.622759158222916  35.85749690210657 17.653936087295403  L 35.786864931846345 17.653936087295403  C 35.58281701776126 17.653936087295403  35.418009087154076 17.599376461418547  35.292441140024785 17.490257209664847  L 19 3.998441153546376  L 2.707558859975217 17.490257209664847  C 2.519206939281289 17.61496492595479  2.3308550185873607 17.669524551831643  2.1425030978934325 17.653936087295403  C 1.938455183808344 17.622759158222916  1.7736472532011567 17.53702260327358  1.648079306071871 17.39672642244739  L 0.18835192069392814 15.666406858924397  C 0.06278397356464274 15.510522213561963  0.007847996695580395 15.327357755261106  0.023543990086741018 15.116913484021826  C 0.03923998347790181 14.906469212782541  0.12556794712928548 14.738893219017925  0.28252788104089216 14.614185502727981  L 17.210656753407683 0.6079501169134849  C 17.712928541924825 0.2026500389711583  18.309376290788933 0  19 0  C 19.690623709211074 0  20.28707145807518 0.2026500389711583  20.789343246592317 0.6079501169134849  L 26.534076827757126 5.3780202650038955  L 26.534076827757126 0.8183943881527656  C 26.534076827757126 0.6001558846453592  26.604708798017345 0.42088854247856466  26.745972738537795 0.28059236165237866  C 26.88723667905824 0.14029618082618933  27.06774060305659 0.07014809041309467  27.28748451053284 0.07014809041309467  L 31.807930607187114 0.07014809041309467  C 32.02767451466337 0.07014809041309467  32.20817843866171 0.14029618082618933  32.34944237918216 0.28059236165237866  C 32.4907063197026 0.42088854247856466  32.561338289962826 0.6001558846453592  32.561338289962826 0.8183943881527656  L 32.561338289962826 10.358534684333593  L 37.71747211895911 14.614185502727981  C 37.874432052870716 14.738893219017925  37.9607600165221 14.906469212782541  37.97645600991326 15.116913484021826  Z " fill-rule="nonzero" fill="#aaaaaa" stroke="none" transform="matrix(1 0 0 1 5 324 )" />
  </g>
</svg>