<?xml version="1.0" encoding="utf-8"?>
<svg version="1.1" xmlns:xlink="http://www.w3.org/1999/xlink" width="39px" height="25px" xmlns="http://www.w3.org/2000/svg">
  <g transform="matrix(1 0 0 1 -899 -12 )">
    <path d="M 39 5.543478260869566  C 39 5.9702093397745575  38.84677419354839 6.336553945249595  38.54032258064516 6.642512077294685  L 20.588709677419352 24.541062801932366  C 20.28225806451613 24.847020933977458  19.919354838709676 25  19.5 25  C 19.080645161290324 25  18.717741935483872 24.847020933977458  18.411290322580644 24.541062801932366  L 0.45967741935483875 6.642512077294685  C 0.15322580645161313 6.336553945249595  0 5.9702093397745575  0 5.543478260869566  C 0 5.116747181964571  0.15322580645161313 4.750402576489532  0.45967741935483875 4.4444444444444455  L 4.475806451612903 0.45893719806763267  C 4.782258064516129 0.1529790660225433  5.145161290322582 0  5.564516129032257 0  C 5.983870967741937 0  6.346774193548389 0.1529790660225433  6.653225806451613 0.45893719806763267  L 19.5 13.28502415458937  L 32.346774193548384 0.45893719806763267  C 32.653225806451616 0.1529790660225433  33.016129032258064 0  33.435483870967744 0  C 33.85483870967742 0  34.21774193548387 0.1529790660225433  34.524193548387096 0.45893719806763267  L 38.54032258064516 4.4444444444444455  C 38.84677419354839 4.750402576489532  39 5.116747181964571  39 5.543478260869566  Z " fill-rule="nonzero" fill="#aaaaaa" stroke="none" transform="matrix(1 0 0 1 899 12 )" />
  </g>
</svg>