<?xml version="1.0" encoding="utf-8"?>
<svg version="1.1" xmlns:xlink="http://www.w3.org/1999/xlink" width="119px" height="119px" xmlns="http://www.w3.org/2000/svg">
  <g transform="matrix(1 0 0 1 -47 -68 )">
    <path d="M 106.5 68  C 139.82 68  166 94.17999999999999  166 127.5  C 166 160.82  139.82 187  106.5 187  C 73.17999999999999 187  47 160.82  47 127.5  C 47 94.17999999999999  73.17999999999999 68  106.5 68  Z " fill-rule="nonzero" fill="#ffffff" stroke="none" />
    <path d="M 106.5 68.5  C 139.54000000000002 68.5  165.5 94.46  165.5 127.5  C 165.5 160.54000000000002  139.54000000000002 186.5  106.5 186.5  C 73.46 186.5  47.5 160.54000000000002  47.5 127.5  C 47.5 94.46  73.46 68.5  106.5 68.5  Z " stroke-width="1" stroke="#797979" fill="none" />
  </g>
</svg>