<?xml version="1.0" encoding="utf-8"?>
<svg version="1.1" xmlns:xlink="http://www.w3.org/1999/xlink" width="201px" height="242px" xmlns="http://www.w3.org/2000/svg">
  <g>
    <path d="M 0 0  L 201 0  L 201 242  L 0 242  L 0 0  " fill-rule="nonzero" fill="#cccccc" stroke="none" />
    <path d="M 14 14  L 187 14  L 187 228  L 14 228  L 14 14  " fill-rule="nonzero" fill="#ffffff" stroke="none" />
    <path d="M 119.59500000000001 66.44999999999999  C 111.153 66.44999999999999  104.52000000000001 59.81699999999999  104.52000000000001 51.37499999999999  C 104.52000000000001 42.93299999999999  111.153 36.3  119.59500000000001 36.3  C 128.037 36.3  134.67000000000002 42.93299999999999  134.67000000000002 51.37499999999999  C 134.67000000000002 59.81699999999999  128.037 66.44999999999999  119.59500000000001 66.44999999999999  " fill-rule="nonzero" fill="#cccccc" stroke="none" />
    <path d="M 19 223  L 19 110.8  L 59.75 59.79999999999998  L 116.8 100.60000000000001  L 149.4 90.4  L 182 100.60000000000001  L 182 223  L 19 223  " fill-rule="nonzero" fill="#169bd5" stroke="none" />
  </g>
</svg>