<?xml version="1.0" encoding="utf-8"?>
<svg version="1.1" xmlns:xlink="http://www.w3.org/1999/xlink" width="30px" height="18px" xmlns="http://www.w3.org/2000/svg">
  <g transform="matrix(1 0 0 1 -7 -385 )">
    <path d="M 29.443359375 0.5937500000000009  C 29.814453125000004 0.9895833333333315  30 1.4583333333333288  30 2.000000000000001  C 30 2.541666666666665  29.814453125000004 3.0104166666666643  29.443359375 3.406250000000001  L 16.318359375 17.40625  C 15.947265625000002 17.802083333333336  15.507812500000002 18  15 18  C 14.492187500000002 18  14.052734375000002 17.802083333333336  13.681640625 17.40625  L 0.556640625 3.406250000000001  C 0.185546875 3.0104166666666643  0 2.541666666666665  0 2.000000000000001  C 0 1.4583333333333288  0.185546875 0.9895833333333315  0.556640625 0.5937500000000009  C 0.927734375 0.1979166666666643  1.3671875000000002 0  1.875 0  L 28.125 0  C 28.6328125 0  29.072265625 0.1979166666666643  29.443359375 0.5937500000000009  Z " fill-rule="nonzero" fill="#000000" stroke="none" transform="matrix(1 0 0 1 7 385 )" />
  </g>
</svg>