<?xml version="1.0" encoding="utf-8"?>
<svg version="1.1" xmlns:xlink="http://www.w3.org/1999/xlink" width="32px" height="18px" xmlns="http://www.w3.org/2000/svg">
  <g transform="matrix(1 0 0 1 -985 -385 )">
    <path d="M 31.40625 14.59375  C 31.802083333333336 14.989583333333329  32 15.458333333333329  32 16  C 32 16.541666666666664  31.802083333333336 17.010416666666664  31.40625 17.40625  C 31.010416666666668 17.802083333333336  30.541666666666668 18  30 18  L 2 18  C 1.4583333333333335 18  0.9895833333333334 17.802083333333336  0.59375 17.40625  C 0.19791666666666666 17.010416666666664  0 16.541666666666664  0 16  C 0 15.458333333333329  0.19791666666666666 14.989583333333329  0.59375 14.59375  L 14.59375 0.5937500000000009  C 14.989583333333336 0.1979166666666643  15.458333333333336 0  16 0  C 16.541666666666668 0  17.010416666666668 0.1979166666666643  17.40625 0.5937500000000009  L 31.40625 14.59375  Z " fill-rule="nonzero" fill="#000000" stroke="none" transform="matrix(1 0 0 1 985 385 )" />
  </g>
</svg>