<?xml version="1.0" encoding="utf-8"?>
<svg version="1.1" xmlns:xlink="http://www.w3.org/1999/xlink" width="18px" height="18px" xmlns="http://www.w3.org/2000/svg">
  <g transform="matrix(1 0 0 1 -51 -417 )">
    <path d="M 4.482421875 1.2070312499999993  C 5.861328125 0.40234374999999845  7.367187500000001 0  9 0  C 10.6328125 0  12.138671875000002 0.40234374999999845  13.517578125 1.2070312499999993  C 14.896484375 2.0117187499999982  15.988281250000002 3.103515625  16.79296875 4.482421875  C 17.597656249999996 5.861328124999998  18 7.367187499999997  18 9  C 18 10.6328125  17.597656249999996 12.138671874999998  16.79296875 13.517578125  C 15.988281250000002 14.896484375  14.896484375 15.98828125  13.517578125 16.79296875  C 12.138671875000002 17.59765625  10.6328125 18  9 18  C 7.367187500000001 18  5.861328125 17.59765625  4.482421875 16.79296875  C 3.1035156250000004 15.98828125  2.01171875 14.896484375  1.20703125 13.517578125  C 0.40234374999999994 12.138671874999998  0 10.6328125  0 9  C 0 7.367187499999997  0.40234374999999994 5.861328124999998  1.20703125 4.482421875  C 2.01171875 3.103515625  3.1035156250000004 2.0117187499999982  4.482421875 1.2070312499999993  Z M 7.125 13.39453125  L 13.5 9.644531250000002  C 13.750000000000002 9.503906250000002  13.875 9.289062499999998  13.875 9  C 13.875 8.7109375  13.750000000000002 8.49609375  13.5 8.35546875  L 7.125 4.60546875  C 6.882812500000001 4.45703125  6.6328125 4.453125000000001  6.375 4.593750000000001  C 6.125000000000001 4.742187499999999  6 4.960937499999999  6 5.249999999999999  L 6 12.749999999999998  C 6 13.039062499999996  6.125000000000001 13.2578125  6.375 13.406250000000002  C 6.500000000000001 13.46875  6.625 13.5  6.75 13.5  C 6.882812500000001 13.5  7.0078125 13.46484375  7.125 13.39453125  Z " fill-rule="nonzero" fill="#d7d7d7" stroke="none" transform="matrix(1 0 0 1 51 417 )" />
  </g>
</svg>