<?xml version="1.0" encoding="utf-8"?>
<svg version="1.1" xmlns:xlink="http://www.w3.org/1999/xlink" width="80px" height="80px" xmlns="http://www.w3.org/2000/svg">
  <g transform="matrix(1 0 0 1 -22 -11 )">
    <path d="M 62 11  C 84.4 11  102 28.599999999999998  102 51  C 102 73.4  84.4 91  62 91  C 39.599999999999994 91  22 73.4  22 51  C 22 28.599999999999998  39.599999999999994 11  62 11  Z " fill-rule="nonzero" fill="#ffffff" stroke="none" />
    <path d="M 62 11.5  C 84.12 11.5  101.5 28.88  101.5 51  C 101.5 73.12  84.12 90.5  62 90.5  C 39.879999999999995 90.5  22.5 73.12  22.5 51  C 22.5 28.88  39.879999999999995 11.5  62 11.5  Z " stroke-width="1" stroke="#797979" fill="none" />
  </g>
</svg>