<?xml version="1.0" encoding="utf-8"?>
<svg version="1.1" xmlns:xlink="http://www.w3.org/1999/xlink" width="10px" height="10px" xmlns="http://www.w3.org/2000/svg">
  <g transform="matrix(1 0 0 1 -513 -420 )">
    <path d="M 518 421  C 520.24 421  522 422.76  522 425  C 522 427.24  520.24 429  518 429  C 515.76 429  514 427.24  514 425  C 514 422.76  515.76 421  518 421  Z " fill-rule="nonzero" fill="#ffffff" stroke="none" fill-opacity="0.08235294117647059" />
    <path d="M 518 421  C 520.24 421  522 422.76  522 425  C 522 427.24  520.24 429  518 429  C 515.76 429  514 427.24  514 425  C 514 422.76  515.76 421  518 421  Z " stroke-width="2" stroke="#797979" fill="none" />
  </g>
</svg>