<?xml version="1.0" encoding="utf-8"?>
<svg version="1.1" xmlns:xlink="http://www.w3.org/1999/xlink" width="10px" height="10px" xmlns="http://www.w3.org/2000/svg">
  <g transform="matrix(1 0 0 1 -499 -430 )">
    <path d="M 504 431  C 506.24 431  508 432.76  508 435  C 508 437.24  506.24 439  504 439  C 501.76 439  500 437.24  500 435  C 500 432.76  501.76 431  504 431  Z " fill-rule="nonzero" fill="#ffffff" stroke="none" fill-opacity="0.08235294117647059" />
    <path d="M 504 431  C 506.24 431  508 432.76  508 435  C 508 437.24  506.24 439  504 439  C 501.76 439  500 437.24  500 435  C 500 432.76  501.76 431  504 431  Z " stroke-width="2" stroke="#f2f2f2" fill="none" />
  </g>
</svg>